<?xml version="1.0" encoding="UTF-8" standalone="no"?>
<!DOCTYPE svg PUBLIC "-//W3C//DTD SVG 1.1//EN"
 "http://www.w3.org/Graphics/SVG/1.1/DTD/svg11.dtd">
<!-- Generated by graphviz version 2.47.0 (20210316.0004)
 -->
<!-- Title: dependencies Pages: 1 -->
<svg width="504pt" height="211pt"
 viewBox="0.00 0.00 504.00 211.00" xmlns="http://www.w3.org/2000/svg" xmlns:xlink="http://www.w3.org/1999/xlink">
<g id="graph0" class="graph" transform="scale(1 1) rotate(0) translate(4 207)">
<title>dependencies</title>
<polygon fill="white" stroke="transparent" points="-4,4 -4,-207 500,-207 500,4 -4,4"/>
<text text-anchor="start" x="227.01" y="-42.4" font-family="sans-serif" font-weight="bold" font-size="14.00">Legend</text>
<polygon fill="#ffffb3" stroke="transparent" points="14,-10 14,-30 34,-30 34,-10 14,-10"/>
<text text-anchor="start" x="37.63" y="-15.4" font-family="sans-serif" font-size="14.00"> &#160;Declarations</text>
<polygon fill="#8dd3c7" stroke="transparent" points="127,-10 127,-30 147,-30 147,-10 127,-10"/>
<text text-anchor="start" x="150.73" y="-15.4" font-family="sans-serif" font-size="14.00"> &#160;Module</text>
<polygon fill="#80b1d3" stroke="transparent" points="213,-10 213,-30 233,-30 233,-10 213,-10"/>
<text text-anchor="start" x="236.78" y="-15.4" font-family="sans-serif" font-size="14.00"> &#160;Bootstrap</text>
<polygon fill="#fdb462" stroke="transparent" points="310,-10 310,-30 330,-30 330,-10 310,-10"/>
<text text-anchor="start" x="333.67" y="-15.4" font-family="sans-serif" font-size="14.00"> &#160;Providers</text>
<polygon fill="#fb8072" stroke="transparent" points="406,-10 406,-30 426,-30 426,-10 406,-10"/>
<text text-anchor="start" x="429.73" y="-15.4" font-family="sans-serif" font-size="14.00"> &#160;Exports</text>
<g id="clust1" class="cluster">
<title>cluster_CharacterModule</title>
<polygon fill="none" stroke="black" stroke-dasharray="1,5" points="19,-70 19,-195 477,-195 477,-70 19,-70"/>
</g>
<g id="clust2" class="cluster">
<title>cluster_CharacterModule_declarations</title>
<polygon fill="none" stroke="black" points="327,-78 327,-130 469,-130 469,-78 327,-78"/>
</g>
<g id="clust4" class="cluster">
<title>cluster_CharacterModule_imports</title>
<polygon fill="none" stroke="black" points="27,-78 27,-130 319,-130 319,-78 27,-78"/>
</g>
<!-- SchoolsComponent -->
<g id="node1" class="node">
<title>SchoolsComponent</title>
<polygon fill="#ffffb3" stroke="black" points="460.67,-122 335.33,-122 335.33,-86 460.67,-86 460.67,-122"/>
<text text-anchor="middle" x="398" y="-99.8" font-family="Times,serif" font-size="14.00">SchoolsComponent</text>
</g>
<!-- CharacterModule -->
<g id="node2" class="node">
<title>CharacterModule</title>
<polygon fill="#8dd3c7" stroke="black" points="287.96,-187 284.96,-191 263.96,-191 260.96,-187 174.04,-187 174.04,-151 287.96,-151 287.96,-187"/>
<text text-anchor="middle" x="231" y="-164.8" font-family="Times,serif" font-size="14.00">CharacterModule</text>
</g>
<!-- SchoolsComponent&#45;&gt;CharacterModule -->
<g id="edge1" class="edge">
<title>SchoolsComponent&#45;&gt;CharacterModule</title>
<path fill="none" stroke="black" d="M398,-122.11C398,-141.34 398,-169 398,-169 398,-169 298,-169 298,-169"/>
<polygon fill="black" stroke="black" points="298,-165.5 288,-169 298,-172.5 298,-165.5"/>
</g>
<!-- CharacterRoutingModule -->
<g id="node3" class="node">
<title>CharacterRoutingModule</title>
<polygon fill="#8dd3c7" stroke="black" points="310.57,-122 307.57,-126 286.57,-126 283.57,-122 151.43,-122 151.43,-86 310.57,-86 310.57,-122"/>
<text text-anchor="middle" x="231" y="-99.8" font-family="Times,serif" font-size="14.00">CharacterRoutingModule</text>
</g>
<!-- CharacterRoutingModule&#45;&gt;CharacterModule -->
<g id="edge2" class="edge">
<title>CharacterRoutingModule&#45;&gt;CharacterModule</title>
<path fill="none" stroke="black" d="M231,-122.11C231,-122.11 231,-140.99 231,-140.99"/>
<polygon fill="black" stroke="black" points="227.5,-140.99 231,-150.99 234.5,-140.99 227.5,-140.99"/>
</g>
<!-- SharedModule -->
<g id="node4" class="node">
<title>SharedModule</title>
<polygon fill="#8dd3c7" stroke="black" points="133.42,-122 130.42,-126 109.42,-126 106.42,-122 34.58,-122 34.58,-86 133.42,-86 133.42,-122"/>
<text text-anchor="middle" x="84" y="-99.8" font-family="Times,serif" font-size="14.00">SharedModule</text>
</g>
<!-- SharedModule&#45;&gt;CharacterModule -->
<g id="edge3" class="edge">
<title>SharedModule&#45;&gt;CharacterModule</title>
<path fill="none" stroke="black" d="M84,-122.11C84,-141.34 84,-169 84,-169 84,-169 163.75,-169 163.75,-169"/>
<polygon fill="black" stroke="black" points="163.75,-172.5 173.75,-169 163.75,-165.5 163.75,-172.5"/>
</g>
</g>
</svg>
