<?xml version="1.0" encoding="UTF-8" standalone="no"?>
<!DOCTYPE svg PUBLIC "-//W3C//DTD SVG 1.1//EN"
 "http://www.w3.org/Graphics/SVG/1.1/DTD/svg11.dtd">
<!-- Generated by graphviz version 2.47.0 (20210316.0004)
 -->
<!-- Title: dependencies Pages: 1 -->
<svg width="2157pt" height="360pt"
 viewBox="0.00 0.00 2157.00 360.00" xmlns="http://www.w3.org/2000/svg" xmlns:xlink="http://www.w3.org/1999/xlink">
<g id="graph0" class="graph" transform="scale(1 1) rotate(0) translate(4 356)">
<title>dependencies</title>
<polygon fill="white" stroke="transparent" points="-4,4 -4,-356 2153,-356 2153,4 -4,4"/>
<text text-anchor="start" x="1053.51" y="-42.4" font-family="sans-serif" font-weight="bold" font-size="14.00">Legend</text>
<polygon fill="#ffffb3" stroke="transparent" points="840.5,-10 840.5,-30 860.5,-30 860.5,-10 840.5,-10"/>
<text text-anchor="start" x="864.13" y="-15.4" font-family="sans-serif" font-size="14.00"> &#160;Declarations</text>
<polygon fill="#8dd3c7" stroke="transparent" points="953.5,-10 953.5,-30 973.5,-30 973.5,-10 953.5,-10"/>
<text text-anchor="start" x="977.23" y="-15.4" font-family="sans-serif" font-size="14.00"> &#160;Module</text>
<polygon fill="#80b1d3" stroke="transparent" points="1039.5,-10 1039.5,-30 1059.5,-30 1059.5,-10 1039.5,-10"/>
<text text-anchor="start" x="1063.28" y="-15.4" font-family="sans-serif" font-size="14.00"> &#160;Bootstrap</text>
<polygon fill="#fdb462" stroke="transparent" points="1136.5,-10 1136.5,-30 1156.5,-30 1156.5,-10 1136.5,-10"/>
<text text-anchor="start" x="1160.17" y="-15.4" font-family="sans-serif" font-size="14.00"> &#160;Providers</text>
<polygon fill="#fb8072" stroke="transparent" points="1232.5,-10 1232.5,-30 1252.5,-30 1252.5,-10 1232.5,-10"/>
<text text-anchor="start" x="1256.23" y="-15.4" font-family="sans-serif" font-size="14.00"> &#160;Exports</text>
<g id="clust1" class="cluster">
<title>cluster_AppModule</title>
<polygon fill="none" stroke="black" stroke-dasharray="1,5" points="1196,-70 1196,-344 1847,-344 1847,-70 1196,-70"/>
</g>
<g id="clust2" class="cluster">
<title>cluster_AppModule_declarations</title>
<polygon fill="none" stroke="black" points="1584,-78 1584,-130 1839,-130 1839,-78 1584,-78"/>
</g>
<g id="clust5" class="cluster">
<title>cluster_AppModule_imports</title>
<polygon fill="none" stroke="black" points="1204,-78 1204,-206 1576,-206 1576,-78 1204,-78"/>
</g>
<g id="clust7" class="cluster">
<title>cluster_AppModule_bootstrap</title>
<polygon fill="none" stroke="black" points="1525,-284 1525,-336 1649,-336 1649,-284 1525,-284"/>
</g>
<g id="clust15" class="cluster">
<title>cluster_CharacterModule</title>
<polygon fill="none" stroke="black" stroke-dasharray="1,5" points="8,-70 8,-138 350,-138 350,-70 8,-70"/>
</g>
<g id="clust16" class="cluster">
<title>cluster_CharacterModule_declarations</title>
<polygon fill="none" stroke="black" points="200,-78 200,-130 342,-130 342,-78 200,-78"/>
</g>
<g id="clust18" class="cluster">
<title>cluster_CharacterModule_imports</title>
<polygon fill="none" stroke="black" points="16,-78 16,-130 192,-130 192,-78 16,-78"/>
</g>
<g id="clust28" class="cluster">
<title>cluster_SharedModule</title>
<polygon fill="none" stroke="black" stroke-dasharray="1,5" points="1855,-146 1855,-214 2141,-214 2141,-146 1855,-146"/>
</g>
<g id="clust29" class="cluster">
<title>cluster_SharedModule_declarations</title>
<polygon fill="none" stroke="black" points="2003,-154 2003,-206 2133,-206 2133,-154 2003,-154"/>
</g>
<g id="clust32" class="cluster">
<title>cluster_SharedModule_exports</title>
<polygon fill="none" stroke="black" points="1863,-154 1863,-206 1995,-206 1995,-154 1863,-154"/>
</g>
<g id="clust35" class="cluster">
<title>cluster_StudentModule</title>
<polygon fill="none" stroke="black" stroke-dasharray="1,5" points="358,-70 358,-138 842,-138 842,-70 358,-70"/>
</g>
<g id="clust36" class="cluster">
<title>cluster_StudentModule_declarations</title>
<polygon fill="none" stroke="black" points="538,-78 538,-130 834,-130 834,-78 538,-78"/>
</g>
<g id="clust40" class="cluster">
<title>cluster_StudentModule_imports</title>
<polygon fill="none" stroke="black" points="366,-78 366,-130 530,-130 530,-78 366,-78"/>
</g>
<g id="clust50" class="cluster">
<title>cluster_TeacherModule</title>
<polygon fill="none" stroke="black" stroke-dasharray="1,5" points="850,-70 850,-138 1188,-138 1188,-70 850,-70"/>
</g>
<g id="clust51" class="cluster">
<title>cluster_TeacherModule_declarations</title>
<polygon fill="none" stroke="black" points="1032,-78 1032,-130 1180,-130 1180,-78 1032,-78"/>
</g>
<g id="clust53" class="cluster">
<title>cluster_TeacherModule_imports</title>
<polygon fill="none" stroke="black" points="858,-78 858,-130 1024,-130 1024,-78 858,-78"/>
</g>
<!-- AppComponent -->
<g id="node1" class="node">
<title>AppComponent</title>
<polygon fill="#ffffb3" stroke="black" points="1830.94,-122 1725.06,-122 1725.06,-86 1830.94,-86 1830.94,-122"/>
<text text-anchor="middle" x="1778" y="-99.8" font-family="Times,serif" font-size="14.00">AppComponent</text>
</g>
<!-- AppModule -->
<g id="node3" class="node">
<title>AppModule</title>
<polygon fill="#8dd3c7" stroke="black" points="1628.66,-263 1625.66,-267 1604.66,-267 1601.66,-263 1545.34,-263 1545.34,-227 1628.66,-227 1628.66,-263"/>
<text text-anchor="middle" x="1587" y="-240.8" font-family="Times,serif" font-size="14.00">AppModule</text>
</g>
<!-- AppComponent&#45;&gt;AppModule -->
<g id="edge1" class="edge">
<title>AppComponent&#45;&gt;AppModule</title>
<path fill="none" stroke="black" d="M1778,-122.14C1778,-160.23 1778,-245 1778,-245 1778,-245 1638.92,-245 1638.92,-245"/>
<polygon fill="black" stroke="black" points="1638.92,-241.5 1628.92,-245 1638.92,-248.5 1638.92,-241.5"/>
</g>
<!-- HomeComponent -->
<g id="node2" class="node">
<title>HomeComponent</title>
<polygon fill="#ffffb3" stroke="black" points="1707.55,-122 1592.45,-122 1592.45,-86 1707.55,-86 1707.55,-122"/>
<text text-anchor="middle" x="1650" y="-99.8" font-family="Times,serif" font-size="14.00">HomeComponent</text>
</g>
<!-- HomeComponent&#45;&gt;AppModule -->
<g id="edge2" class="edge">
<title>HomeComponent&#45;&gt;AppModule</title>
<path fill="none" stroke="black" d="M1616.63,-122.14C1616.63,-122.14 1616.63,-216.93 1616.63,-216.93"/>
<polygon fill="black" stroke="black" points="1613.13,-216.92 1616.63,-226.93 1620.13,-216.93 1613.13,-216.92"/>
</g>
<!-- StudentModule -->
<g id="node7" class="node">
<title>StudentModule</title>
<polygon fill="#8dd3c7" stroke="black" points="1446.33,-198 1443.33,-202 1422.33,-202 1419.33,-198 1343.67,-198 1343.67,-162 1446.33,-162 1446.33,-198"/>
<text text-anchor="middle" x="1395" y="-175.8" font-family="Times,serif" font-size="14.00">StudentModule</text>
</g>
<!-- HomeComponent&#45;&gt;StudentModule -->
<g id="edge14" class="edge">
<title>HomeComponent&#45;&gt;StudentModule</title>
<path fill="none" stroke="black" d="M1604.43,-122.14C1604.43,-128.46 1604.43,-134 1604.43,-134 1604.43,-134 1430.41,-134 1430.41,-134 1430.41,-134 1430.41,-151.82 1430.41,-151.82"/>
<polygon fill="black" stroke="black" points="1426.91,-151.82 1430.41,-161.82 1433.91,-151.82 1426.91,-151.82"/>
</g>
<!-- AppComponent  -->
<g id="node9" class="node">
<title>AppComponent </title>
<polygon fill="#80b1d3" stroke="black" points="1641.44,-328 1532.56,-328 1532.56,-292 1641.44,-292 1641.44,-328"/>
<text text-anchor="middle" x="1587" y="-305.8" font-family="Times,serif" font-size="14.00">AppComponent </text>
</g>
<!-- AppModule&#45;&gt;AppComponent  -->
<g id="edge8" class="edge">
<title>AppModule&#45;&gt;AppComponent </title>
<path fill="none" stroke="black" stroke-dasharray="1,5" d="M1587,-263.11C1587,-263.11 1587,-281.99 1587,-281.99"/>
<polygon fill="black" stroke="black" points="1583.5,-281.99 1587,-291.99 1590.5,-281.99 1583.5,-281.99"/>
</g>
<!-- AppRoutingModule -->
<g id="node4" class="node">
<title>AppRoutingModule</title>
<polygon fill="#8dd3c7" stroke="black" points="1568.27,-122 1565.27,-126 1544.27,-126 1541.27,-122 1439.73,-122 1439.73,-86 1568.27,-86 1568.27,-122"/>
<text text-anchor="middle" x="1504" y="-99.8" font-family="Times,serif" font-size="14.00">AppRoutingModule</text>
</g>
<!-- AppRoutingModule&#45;&gt;AppModule -->
<g id="edge3" class="edge">
<title>AppRoutingModule&#45;&gt;AppModule</title>
<path fill="none" stroke="black" d="M1568.38,-104C1575.54,-104 1580.31,-104 1580.31,-104 1580.31,-104 1580.31,-216.86 1580.31,-216.86"/>
<polygon fill="black" stroke="black" points="1576.81,-216.86 1580.31,-226.86 1583.81,-216.86 1576.81,-216.86"/>
</g>
<!-- CharacterModule -->
<g id="node5" class="node">
<title>CharacterModule</title>
<polygon fill="#8dd3c7" stroke="black" points="1325.96,-198 1322.96,-202 1301.96,-202 1298.96,-198 1212.04,-198 1212.04,-162 1325.96,-162 1325.96,-198"/>
<text text-anchor="middle" x="1269" y="-175.8" font-family="Times,serif" font-size="14.00">CharacterModule</text>
</g>
<!-- CharacterModule&#45;&gt;AppModule -->
<g id="edge4" class="edge">
<title>CharacterModule&#45;&gt;AppModule</title>
<path fill="none" stroke="black" d="M1269,-198.29C1269,-220.21 1269,-254 1269,-254 1269,-254 1535.1,-254 1535.1,-254"/>
<polygon fill="black" stroke="black" points="1535.1,-257.5 1545.1,-254 1535.1,-250.5 1535.1,-257.5"/>
</g>
<!-- SharedModule -->
<g id="node6" class="node">
<title>SharedModule</title>
<polygon fill="#8dd3c7" stroke="black" points="1421.42,-122 1418.42,-126 1397.42,-126 1394.42,-122 1322.58,-122 1322.58,-86 1421.42,-86 1421.42,-122"/>
<text text-anchor="middle" x="1372" y="-99.8" font-family="Times,serif" font-size="14.00">SharedModule</text>
</g>
<!-- SharedModule&#45;&gt;AppModule -->
<g id="edge5" class="edge">
<title>SharedModule&#45;&gt;AppModule</title>
<path fill="none" stroke="black" d="M1337.88,-122.14C1337.88,-160.23 1337.88,-245 1337.88,-245 1337.88,-245 1535.3,-245 1535.3,-245"/>
<polygon fill="black" stroke="black" points="1535.3,-248.5 1545.3,-245 1535.3,-241.5 1535.3,-248.5"/>
</g>
<!-- SharedModule&#45;&gt;CharacterModule -->
<g id="edge11" class="edge">
<title>SharedModule&#45;&gt;CharacterModule</title>
<path fill="none" stroke="black" d="M1331.93,-122.01C1331.93,-144.49 1331.93,-180 1331.93,-180 1331.93,-180 1331.35,-180 1331.35,-180"/>
<polygon fill="black" stroke="black" points="1336.12,-176.5 1326.12,-180 1336.12,-183.5 1336.12,-176.5"/>
</g>
<!-- SharedModule&#45;&gt;StudentModule -->
<g id="edge17" class="edge">
<title>SharedModule&#45;&gt;StudentModule</title>
<path fill="none" stroke="black" d="M1382.52,-122.01C1382.52,-122.01 1382.52,-151.85 1382.52,-151.85"/>
<polygon fill="black" stroke="black" points="1379.02,-151.85 1382.52,-161.85 1386.02,-151.85 1379.02,-151.85"/>
</g>
<!-- TeacherModule -->
<g id="node8" class="node">
<title>TeacherModule</title>
<polygon fill="#8dd3c7" stroke="black" points="1568.12,-198 1565.12,-202 1544.12,-202 1541.12,-198 1463.88,-198 1463.88,-162 1568.12,-162 1568.12,-198"/>
<text text-anchor="middle" x="1516" y="-175.8" font-family="Times,serif" font-size="14.00">TeacherModule</text>
</g>
<!-- SharedModule&#45;&gt;TeacherModule -->
<g id="edge20" class="edge">
<title>SharedModule&#45;&gt;TeacherModule</title>
<path fill="none" stroke="black" d="M1401.87,-122.19C1401.87,-130.28 1401.87,-138 1401.87,-138 1401.87,-138 1542.16,-138 1542.16,-138 1542.16,-138 1542.16,-151.94 1542.16,-151.94"/>
<polygon fill="black" stroke="black" points="1538.66,-151.94 1542.16,-161.94 1545.66,-151.94 1538.66,-151.94"/>
</g>
<!-- TableComponent  -->
<g id="node13" class="node">
<title>TableComponent </title>
<polygon fill="#fb8072" stroke="black" points="1987.21,-198 1870.79,-198 1870.79,-162 1987.21,-162 1987.21,-198"/>
<text text-anchor="middle" x="1929" y="-175.8" font-family="Times,serif" font-size="14.00">TableComponent </text>
</g>
<!-- SharedModule&#45;&gt;TableComponent  -->
<g id="edge13" class="edge">
<title>SharedModule&#45;&gt;TableComponent </title>
<path fill="none" stroke="black" stroke-dasharray="5,2" d="M1411.54,-122.06C1411.54,-126.49 1411.54,-130 1411.54,-130 1411.54,-130 1929,-130 1929,-130 1929,-130 1929,-151.95 1929,-151.95"/>
<polygon fill="black" stroke="black" points="1925.5,-151.95 1929,-161.95 1932.5,-151.95 1925.5,-151.95"/>
</g>
<!-- StudentModule&#45;&gt;AppModule -->
<g id="edge6" class="edge">
<title>StudentModule&#45;&gt;AppModule</title>
<path fill="none" stroke="black" d="M1395,-198.03C1395,-214.4 1395,-236 1395,-236 1395,-236 1535.34,-236 1535.34,-236"/>
<polygon fill="black" stroke="black" points="1535.34,-239.5 1545.34,-236 1535.34,-232.5 1535.34,-239.5"/>
</g>
<!-- TeacherModule&#45;&gt;AppModule -->
<g id="edge7" class="edge">
<title>TeacherModule&#45;&gt;AppModule</title>
<path fill="none" stroke="black" d="M1556.74,-198.11C1556.74,-198.11 1556.74,-216.99 1556.74,-216.99"/>
<polygon fill="black" stroke="black" points="1553.24,-216.99 1556.74,-226.99 1560.24,-216.99 1553.24,-216.99"/>
</g>
<!-- SchoolsComponent -->
<g id="node10" class="node">
<title>SchoolsComponent</title>
<polygon fill="#ffffb3" stroke="black" points="333.67,-122 208.33,-122 208.33,-86 333.67,-86 333.67,-122"/>
<text text-anchor="middle" x="271" y="-99.8" font-family="Times,serif" font-size="14.00">SchoolsComponent</text>
</g>
<!-- SchoolsComponent&#45;&gt;CharacterModule -->
<g id="edge9" class="edge">
<title>SchoolsComponent&#45;&gt;CharacterModule</title>
<path fill="none" stroke="black" d="M271,-122.03C271,-142.77 271,-174 271,-174 271,-174 1201.76,-174 1201.76,-174"/>
<polygon fill="black" stroke="black" points="1201.76,-177.5 1211.76,-174 1201.76,-170.5 1201.76,-177.5"/>
</g>
<!-- CharacterRoutingModule -->
<g id="node11" class="node">
<title>CharacterRoutingModule</title>
<polygon fill="#8dd3c7" stroke="black" points="183.57,-122 180.57,-126 159.57,-126 156.57,-122 24.43,-122 24.43,-86 183.57,-86 183.57,-122"/>
<text text-anchor="middle" x="104" y="-99.8" font-family="Times,serif" font-size="14.00">CharacterRoutingModule</text>
</g>
<!-- CharacterRoutingModule&#45;&gt;CharacterModule -->
<g id="edge10" class="edge">
<title>CharacterRoutingModule&#45;&gt;CharacterModule</title>
<path fill="none" stroke="black" d="M104,-122.2C104,-146.36 104,-186 104,-186 104,-186 1202.02,-186 1202.02,-186"/>
<polygon fill="black" stroke="black" points="1202.02,-189.5 1212.02,-186 1202.02,-182.5 1202.02,-189.5"/>
</g>
<!-- TableComponent -->
<g id="node12" class="node">
<title>TableComponent</title>
<polygon fill="#ffffb3" stroke="black" points="2124.7,-198 2011.3,-198 2011.3,-162 2124.7,-162 2124.7,-198"/>
<text text-anchor="middle" x="2068" y="-175.8" font-family="Times,serif" font-size="14.00">TableComponent</text>
</g>
<!-- TableComponent&#45;&gt;SharedModule -->
<g id="edge12" class="edge">
<title>TableComponent&#45;&gt;SharedModule</title>
<path fill="none" stroke="black" d="M2068,-161.72C2068,-146.05 2068,-126 2068,-126 2068,-126 1392.2,-126 1392.2,-126 1392.2,-126 1392.2,-125.62 1392.2,-125.62"/>
<polygon fill="black" stroke="black" points="1395.7,-132.17 1392.2,-122.17 1388.7,-132.17 1395.7,-132.17"/>
</g>
<!-- RequestsComponent -->
<g id="node14" class="node">
<title>RequestsComponent</title>
<polygon fill="#ffffb3" stroke="black" points="825.88,-122 694.12,-122 694.12,-86 825.88,-86 825.88,-122"/>
<text text-anchor="middle" x="760" y="-99.8" font-family="Times,serif" font-size="14.00">RequestsComponent</text>
</g>
<!-- RequestsComponent&#45;&gt;StudentModule -->
<g id="edge15" class="edge">
<title>RequestsComponent&#45;&gt;StudentModule</title>
<path fill="none" stroke="black" d="M760,-122.18C760,-135.04 760,-150 760,-150 760,-150 1372.85,-150 1372.85,-150 1372.85,-150 1372.85,-151.86 1372.85,-151.86"/>
<polygon fill="black" stroke="black" points="1369.35,-151.86 1372.85,-161.86 1376.35,-151.86 1369.35,-151.86"/>
</g>
<!-- StudentsComponent -->
<g id="node15" class="node">
<title>StudentsComponent</title>
<polygon fill="#ffffb3" stroke="black" points="675.56,-122 546.44,-122 546.44,-86 675.56,-86 675.56,-122"/>
<text text-anchor="middle" x="611" y="-99.8" font-family="Times,serif" font-size="14.00">StudentsComponent</text>
</g>
<!-- StudentsComponent&#45;&gt;StudentModule -->
<g id="edge16" class="edge">
<title>StudentsComponent&#45;&gt;StudentModule</title>
<path fill="none" stroke="black" d="M611,-122.05C611,-136.37 611,-154 611,-154 611,-154 1363.18,-154 1363.18,-154 1363.18,-154 1363.18,-154.79 1363.18,-154.79"/>
<polygon fill="black" stroke="black" points="1359.68,-151.94 1363.18,-161.94 1366.68,-151.94 1359.68,-151.94"/>
</g>
<!-- StudentRoutingModule -->
<g id="node16" class="node">
<title>StudentRoutingModule</title>
<polygon fill="#8dd3c7" stroke="black" points="521.95,-122 518.95,-126 497.95,-126 494.95,-122 374.05,-122 374.05,-86 521.95,-86 521.95,-122"/>
<text text-anchor="middle" x="448" y="-99.8" font-family="Times,serif" font-size="14.00">StudentRoutingModule</text>
</g>
<!-- StudentRoutingModule&#45;&gt;StudentModule -->
<g id="edge18" class="edge">
<title>StudentRoutingModule&#45;&gt;StudentModule</title>
<path fill="none" stroke="black" d="M448,-122.28C448,-137.95 448,-158 448,-158 448,-158 1353.51,-158 1353.51,-158 1353.51,-158 1353.51,-158.38 1353.51,-158.38"/>
<polygon fill="black" stroke="black" points="1350.01,-151.83 1353.51,-161.83 1357.01,-151.83 1350.01,-151.83"/>
</g>
<!-- TeachersComponent -->
<g id="node17" class="node">
<title>TeachersComponent</title>
<polygon fill="#ffffb3" stroke="black" points="1171.85,-122 1040.15,-122 1040.15,-86 1171.85,-86 1171.85,-122"/>
<text text-anchor="middle" x="1106" y="-99.8" font-family="Times,serif" font-size="14.00">TeachersComponent</text>
</g>
<!-- TeachersComponent&#45;&gt;TeacherModule -->
<g id="edge19" class="edge">
<title>TeachersComponent&#45;&gt;TeacherModule</title>
<path fill="none" stroke="black" d="M1106,-122.11C1106,-131.9 1106,-142 1106,-142 1106,-142 1516,-142 1516,-142 1516,-142 1516,-151.89 1516,-151.89"/>
<polygon fill="black" stroke="black" points="1512.5,-151.89 1516,-161.89 1519.5,-151.89 1512.5,-151.89"/>
</g>
<!-- TeacherRoutingModule -->
<g id="node18" class="node">
<title>TeacherRoutingModule</title>
<polygon fill="#8dd3c7" stroke="black" points="1015.74,-122 1012.74,-126 991.74,-126 988.74,-122 866.26,-122 866.26,-86 1015.74,-86 1015.74,-122"/>
<text text-anchor="middle" x="941" y="-99.8" font-family="Times,serif" font-size="14.00">TeacherRoutingModule</text>
</g>
<!-- TeacherRoutingModule&#45;&gt;TeacherModule -->
<g id="edge21" class="edge">
<title>TeacherRoutingModule&#45;&gt;TeacherModule</title>
<path fill="none" stroke="black" d="M941,-122.06C941,-133.44 941,-146 941,-146 941,-146 1489.84,-146 1489.84,-146 1489.84,-146 1489.84,-151.81 1489.84,-151.81"/>
<polygon fill="black" stroke="black" points="1486.34,-151.81 1489.84,-161.81 1493.34,-151.81 1486.34,-151.81"/>
</g>
</g>
</svg>
