<?xml version="1.0" encoding="UTF-8" standalone="no"?>
<!DOCTYPE svg PUBLIC "-//W3C//DTD SVG 1.1//EN"
 "http://www.w3.org/Graphics/SVG/1.1/DTD/svg11.dtd">
<!-- Generated by graphviz version 2.47.0 (20210316.0004)
 -->
<!-- Title: dependencies Pages: 1 -->
<svg width="758pt" height="211pt"
 viewBox="0.00 0.00 758.00 211.00" xmlns="http://www.w3.org/2000/svg" xmlns:xlink="http://www.w3.org/1999/xlink">
<g id="graph0" class="graph" transform="scale(1 1) rotate(0) translate(4 207)">
<title>dependencies</title>
<polygon fill="white" stroke="transparent" points="-4,4 -4,-207 754,-207 754,4 -4,4"/>
<text text-anchor="start" x="354.01" y="-42.4" font-family="sans-serif" font-weight="bold" font-size="14.00">Legend</text>
<polygon fill="#ffffb3" stroke="transparent" points="141,-10 141,-30 161,-30 161,-10 141,-10"/>
<text text-anchor="start" x="164.63" y="-15.4" font-family="sans-serif" font-size="14.00"> &#160;Declarations</text>
<polygon fill="#8dd3c7" stroke="transparent" points="254,-10 254,-30 274,-30 274,-10 254,-10"/>
<text text-anchor="start" x="277.73" y="-15.4" font-family="sans-serif" font-size="14.00"> &#160;Module</text>
<polygon fill="#80b1d3" stroke="transparent" points="340,-10 340,-30 360,-30 360,-10 340,-10"/>
<text text-anchor="start" x="363.78" y="-15.4" font-family="sans-serif" font-size="14.00"> &#160;Bootstrap</text>
<polygon fill="#fdb462" stroke="transparent" points="437,-10 437,-30 457,-30 457,-10 437,-10"/>
<text text-anchor="start" x="460.67" y="-15.4" font-family="sans-serif" font-size="14.00"> &#160;Providers</text>
<polygon fill="#fb8072" stroke="transparent" points="533,-10 533,-30 553,-30 553,-10 533,-10"/>
<text text-anchor="start" x="556.73" y="-15.4" font-family="sans-serif" font-size="14.00"> &#160;Exports</text>
<g id="clust1" class="cluster">
<title>cluster_StudentModule</title>
<polygon fill="none" stroke="black" stroke-dasharray="1,5" points="8,-70 8,-195 742,-195 742,-70 8,-70"/>
</g>
<g id="clust6" class="cluster">
<title>cluster_StudentModule_imports</title>
<polygon fill="none" stroke="black" points="454,-78 454,-130 734,-130 734,-78 454,-78"/>
</g>
<g id="clust2" class="cluster">
<title>cluster_StudentModule_declarations</title>
<polygon fill="none" stroke="black" points="16,-78 16,-130 446,-130 446,-78 16,-78"/>
</g>
<!-- HomeComponent -->
<g id="node1" class="node">
<title>HomeComponent</title>
<polygon fill="#ffffb3" stroke="black" points="437.55,-122 322.45,-122 322.45,-86 437.55,-86 437.55,-122"/>
<text text-anchor="middle" x="380" y="-99.8" font-family="Times,serif" font-size="14.00">HomeComponent</text>
</g>
<!-- StudentModule -->
<g id="node4" class="node">
<title>StudentModule</title>
<polygon fill="#8dd3c7" stroke="black" points="431.33,-187 428.33,-191 407.33,-191 404.33,-187 328.67,-187 328.67,-151 431.33,-151 431.33,-187"/>
<text text-anchor="middle" x="380" y="-164.8" font-family="Times,serif" font-size="14.00">StudentModule</text>
</g>
<!-- HomeComponent&#45;&gt;StudentModule -->
<g id="edge1" class="edge">
<title>HomeComponent&#45;&gt;StudentModule</title>
<path fill="none" stroke="black" d="M380,-122.11C380,-122.11 380,-140.99 380,-140.99"/>
<polygon fill="black" stroke="black" points="376.5,-140.99 380,-150.99 383.5,-140.99 376.5,-140.99"/>
</g>
<!-- RequestsComponent -->
<g id="node2" class="node">
<title>RequestsComponent</title>
<polygon fill="#ffffb3" stroke="black" points="303.88,-122 172.12,-122 172.12,-86 303.88,-86 303.88,-122"/>
<text text-anchor="middle" x="238" y="-99.8" font-family="Times,serif" font-size="14.00">RequestsComponent</text>
</g>
<!-- RequestsComponent&#45;&gt;StudentModule -->
<g id="edge2" class="edge">
<title>RequestsComponent&#45;&gt;StudentModule</title>
<path fill="none" stroke="black" d="M238,-122.02C238,-139.37 238,-163 238,-163 238,-163 318.73,-163 318.73,-163"/>
<polygon fill="black" stroke="black" points="318.73,-166.5 328.73,-163 318.73,-159.5 318.73,-166.5"/>
</g>
<!-- StudentsComponent -->
<g id="node3" class="node">
<title>StudentsComponent</title>
<polygon fill="#ffffb3" stroke="black" points="153.56,-122 24.44,-122 24.44,-86 153.56,-86 153.56,-122"/>
<text text-anchor="middle" x="89" y="-99.8" font-family="Times,serif" font-size="14.00">StudentsComponent</text>
</g>
<!-- StudentsComponent&#45;&gt;StudentModule -->
<g id="edge3" class="edge">
<title>StudentsComponent&#45;&gt;StudentModule</title>
<path fill="none" stroke="black" d="M89,-122.28C89,-143.32 89,-175 89,-175 89,-175 318.64,-175 318.64,-175"/>
<polygon fill="black" stroke="black" points="318.64,-178.5 328.64,-175 318.64,-171.5 318.64,-178.5"/>
</g>
<!-- SharedModule -->
<g id="node5" class="node">
<title>SharedModule</title>
<polygon fill="#8dd3c7" stroke="black" points="726.42,-122 723.42,-126 702.42,-126 699.42,-122 627.58,-122 627.58,-86 726.42,-86 726.42,-122"/>
<text text-anchor="middle" x="677" y="-99.8" font-family="Times,serif" font-size="14.00">SharedModule</text>
</g>
<!-- SharedModule&#45;&gt;StudentModule -->
<g id="edge4" class="edge">
<title>SharedModule&#45;&gt;StudentModule</title>
<path fill="none" stroke="black" d="M677,-122.28C677,-143.32 677,-175 677,-175 677,-175 441.39,-175 441.39,-175"/>
<polygon fill="black" stroke="black" points="441.39,-171.5 431.39,-175 441.39,-178.5 441.39,-171.5"/>
</g>
<!-- StudentRoutingModule -->
<g id="node6" class="node">
<title>StudentRoutingModule</title>
<polygon fill="#8dd3c7" stroke="black" points="609.95,-122 606.95,-126 585.95,-126 582.95,-122 462.05,-122 462.05,-86 609.95,-86 609.95,-122"/>
<text text-anchor="middle" x="536" y="-99.8" font-family="Times,serif" font-size="14.00">StudentRoutingModule</text>
</g>
<!-- StudentRoutingModule&#45;&gt;StudentModule -->
<g id="edge5" class="edge">
<title>StudentRoutingModule&#45;&gt;StudentModule</title>
<path fill="none" stroke="black" d="M536,-122.02C536,-139.37 536,-163 536,-163 536,-163 441.51,-163 441.51,-163"/>
<polygon fill="black" stroke="black" points="441.51,-159.5 431.51,-163 441.51,-166.5 441.51,-159.5"/>
</g>
</g>
</svg>
