<?xml version="1.0" encoding="UTF-8" standalone="no"?>
<!DOCTYPE svg PUBLIC "-//W3C//DTD SVG 1.1//EN"
 "http://www.w3.org/Graphics/SVG/1.1/DTD/svg11.dtd">
<!-- Generated by graphviz version 2.47.0 (20210316.0004)
 -->
<!-- Title: dependencies Pages: 1 -->
<svg width="937pt" height="284pt"
 viewBox="0.00 0.00 937.00 284.00" xmlns="http://www.w3.org/2000/svg" xmlns:xlink="http://www.w3.org/1999/xlink">
<g id="graph0" class="graph" transform="scale(1 1) rotate(0) translate(4 280)">
<title>dependencies</title>
<polygon fill="white" stroke="transparent" points="-4,4 -4,-280 933,-280 933,4 -4,4"/>
<text text-anchor="start" x="443.51" y="-42.4" font-family="sans-serif" font-weight="bold" font-size="14.00">Legend</text>
<polygon fill="#ffffb3" stroke="transparent" points="230.5,-10 230.5,-30 250.5,-30 250.5,-10 230.5,-10"/>
<text text-anchor="start" x="254.13" y="-15.4" font-family="sans-serif" font-size="14.00"> &#160;Declarations</text>
<polygon fill="#8dd3c7" stroke="transparent" points="343.5,-10 343.5,-30 363.5,-30 363.5,-10 343.5,-10"/>
<text text-anchor="start" x="367.23" y="-15.4" font-family="sans-serif" font-size="14.00"> &#160;Module</text>
<polygon fill="#80b1d3" stroke="transparent" points="429.5,-10 429.5,-30 449.5,-30 449.5,-10 429.5,-10"/>
<text text-anchor="start" x="453.28" y="-15.4" font-family="sans-serif" font-size="14.00"> &#160;Bootstrap</text>
<polygon fill="#fdb462" stroke="transparent" points="526.5,-10 526.5,-30 546.5,-30 546.5,-10 526.5,-10"/>
<text text-anchor="start" x="550.17" y="-15.4" font-family="sans-serif" font-size="14.00"> &#160;Providers</text>
<polygon fill="#fb8072" stroke="transparent" points="622.5,-10 622.5,-30 642.5,-30 642.5,-10 622.5,-10"/>
<text text-anchor="start" x="646.23" y="-15.4" font-family="sans-serif" font-size="14.00"> &#160;Exports</text>
<g id="clust1" class="cluster">
<title>cluster_AppModule</title>
<polygon fill="none" stroke="black" stroke-dasharray="1,5" points="8,-70 8,-268 921,-268 921,-70 8,-70"/>
</g>
<g id="clust5" class="cluster">
<title>cluster_AppModule_imports</title>
<polygon fill="none" stroke="black" points="279,-78 279,-130 913,-130 913,-78 279,-78"/>
</g>
<g id="clust7" class="cluster">
<title>cluster_AppModule_bootstrap</title>
<polygon fill="none" stroke="black" points="398,-208 398,-260 522,-260 522,-208 398,-208"/>
</g>
<g id="clust2" class="cluster">
<title>cluster_AppModule_declarations</title>
<polygon fill="none" stroke="black" points="16,-78 16,-130 271,-130 271,-78 16,-78"/>
</g>
<!-- AppComponent -->
<g id="node1" class="node">
<title>AppComponent</title>
<polygon fill="#ffffb3" stroke="black" points="262.94,-122 157.06,-122 157.06,-86 262.94,-86 262.94,-122"/>
<text text-anchor="middle" x="210" y="-99.8" font-family="Times,serif" font-size="14.00">AppComponent</text>
</g>
<!-- AppModule -->
<g id="node3" class="node">
<title>AppModule</title>
<polygon fill="#8dd3c7" stroke="black" points="501.66,-187 498.66,-191 477.66,-191 474.66,-187 418.34,-187 418.34,-151 501.66,-151 501.66,-187"/>
<text text-anchor="middle" x="460" y="-164.8" font-family="Times,serif" font-size="14.00">AppModule</text>
</g>
<!-- AppComponent&#45;&gt;AppModule -->
<g id="edge1" class="edge">
<title>AppComponent&#45;&gt;AppModule</title>
<path fill="none" stroke="black" d="M210,-122.11C210,-141.34 210,-169 210,-169 210,-169 408.16,-169 408.16,-169"/>
<polygon fill="black" stroke="black" points="408.16,-172.5 418.16,-169 408.16,-165.5 408.16,-172.5"/>
</g>
<!-- HomeComponent -->
<g id="node2" class="node">
<title>HomeComponent</title>
<polygon fill="#ffffb3" stroke="black" points="139.55,-122 24.45,-122 24.45,-86 139.55,-86 139.55,-122"/>
<text text-anchor="middle" x="82" y="-99.8" font-family="Times,serif" font-size="14.00">HomeComponent</text>
</g>
<!-- HomeComponent&#45;&gt;AppModule -->
<g id="edge2" class="edge">
<title>HomeComponent&#45;&gt;AppModule</title>
<path fill="none" stroke="black" d="M82,-122.29C82,-144.21 82,-178 82,-178 82,-178 408.1,-178 408.1,-178"/>
<polygon fill="black" stroke="black" points="408.1,-181.5 418.1,-178 408.1,-174.5 408.1,-181.5"/>
</g>
<!-- AppComponent  -->
<g id="node9" class="node">
<title>AppComponent </title>
<polygon fill="#80b1d3" stroke="black" points="514.44,-252 405.56,-252 405.56,-216 514.44,-216 514.44,-252"/>
<text text-anchor="middle" x="460" y="-229.8" font-family="Times,serif" font-size="14.00">AppComponent </text>
</g>
<!-- AppModule&#45;&gt;AppComponent  -->
<g id="edge8" class="edge">
<title>AppModule&#45;&gt;AppComponent </title>
<path fill="none" stroke="black" stroke-dasharray="1,5" d="M460,-187.11C460,-187.11 460,-205.99 460,-205.99"/>
<polygon fill="black" stroke="black" points="456.5,-205.99 460,-215.99 463.5,-205.99 456.5,-205.99"/>
</g>
<!-- AppRoutingModule -->
<g id="node4" class="node">
<title>AppRoutingModule</title>
<polygon fill="#8dd3c7" stroke="black" points="905.27,-122 902.27,-126 881.27,-126 878.27,-122 776.73,-122 776.73,-86 905.27,-86 905.27,-122"/>
<text text-anchor="middle" x="841" y="-99.8" font-family="Times,serif" font-size="14.00">AppRoutingModule</text>
</g>
<!-- AppRoutingModule&#45;&gt;AppModule -->
<g id="edge3" class="edge">
<title>AppRoutingModule&#45;&gt;AppModule</title>
<path fill="none" stroke="black" d="M841,-122.29C841,-144.21 841,-178 841,-178 841,-178 511.86,-178 511.86,-178"/>
<polygon fill="black" stroke="black" points="511.86,-174.5 501.86,-178 511.86,-181.5 511.86,-174.5"/>
</g>
<!-- CharacterModule -->
<g id="node5" class="node">
<title>CharacterModule</title>
<polygon fill="#8dd3c7" stroke="black" points="758.96,-122 755.96,-126 734.96,-126 731.96,-122 645.04,-122 645.04,-86 758.96,-86 758.96,-122"/>
<text text-anchor="middle" x="702" y="-99.8" font-family="Times,serif" font-size="14.00">CharacterModule</text>
</g>
<!-- CharacterModule&#45;&gt;AppModule -->
<g id="edge4" class="edge">
<title>CharacterModule&#45;&gt;AppModule</title>
<path fill="none" stroke="black" d="M702,-122.11C702,-141.34 702,-169 702,-169 702,-169 511.88,-169 511.88,-169"/>
<polygon fill="black" stroke="black" points="511.88,-165.5 501.88,-169 511.88,-172.5 511.88,-165.5"/>
</g>
<!-- SharedModule -->
<g id="node6" class="node">
<title>SharedModule</title>
<polygon fill="#8dd3c7" stroke="black" points="627.42,-122 624.42,-126 603.42,-126 600.42,-122 528.58,-122 528.58,-86 627.42,-86 627.42,-122"/>
<text text-anchor="middle" x="578" y="-99.8" font-family="Times,serif" font-size="14.00">SharedModule</text>
</g>
<!-- SharedModule&#45;&gt;AppModule -->
<g id="edge5" class="edge">
<title>SharedModule&#45;&gt;AppModule</title>
<path fill="none" stroke="black" d="M578,-122.03C578,-138.4 578,-160 578,-160 578,-160 511.93,-160 511.93,-160"/>
<polygon fill="black" stroke="black" points="511.93,-156.5 501.93,-160 511.93,-163.5 511.93,-156.5"/>
</g>
<!-- StudentModule -->
<g id="node7" class="node">
<title>StudentModule</title>
<polygon fill="#8dd3c7" stroke="black" points="511.33,-122 508.33,-126 487.33,-126 484.33,-122 408.67,-122 408.67,-86 511.33,-86 511.33,-122"/>
<text text-anchor="middle" x="460" y="-99.8" font-family="Times,serif" font-size="14.00">StudentModule</text>
</g>
<!-- StudentModule&#45;&gt;AppModule -->
<g id="edge6" class="edge">
<title>StudentModule&#45;&gt;AppModule</title>
<path fill="none" stroke="black" d="M460,-122.11C460,-122.11 460,-140.99 460,-140.99"/>
<polygon fill="black" stroke="black" points="456.5,-140.99 460,-150.99 463.5,-140.99 456.5,-140.99"/>
</g>
<!-- TeacherModule -->
<g id="node8" class="node">
<title>TeacherModule</title>
<polygon fill="#8dd3c7" stroke="black" points="391.12,-122 388.12,-126 367.12,-126 364.12,-122 286.88,-122 286.88,-86 391.12,-86 391.12,-122"/>
<text text-anchor="middle" x="339" y="-99.8" font-family="Times,serif" font-size="14.00">TeacherModule</text>
</g>
<!-- TeacherModule&#45;&gt;AppModule -->
<g id="edge7" class="edge">
<title>TeacherModule&#45;&gt;AppModule</title>
<path fill="none" stroke="black" d="M339,-122.03C339,-138.4 339,-160 339,-160 339,-160 408.02,-160 408.02,-160"/>
<polygon fill="black" stroke="black" points="408.02,-163.5 418.02,-160 408.02,-156.5 408.02,-163.5"/>
</g>
</g>
</svg>
